<svg width="900" height="1601" viewBox="0 0 900 1601" fill="none" xmlns="http://www.w3.org/2000/svg">
<rect width="900" height="1600" fill="#F0ECDF"/>
<path fill-rule="evenodd" clip-rule="evenodd" d="M900 1408.59C847.354 1400.64 793.601 1420.17 747.341 1436.98C704.848 1452.43 668.678 1465.57 645.5 1453C628.83 1443.96 613.122 1434.43 597.449 1424.92C530.525 1384.33 464.242 1344.11 326.5 1344.11C271.911 1344.11 193.827 1262.71 129.747 1195.9C95.092 1159.77 64.5328 1127.91 44 1115.5C26.1796 1104.73 12.3171 1108.07 0 1117.16V1600H900V1408.59Z" fill="#FFB6B6"/>
<path fill-rule="evenodd" clip-rule="evenodd" d="M900 1501.88C825.098 1473.65 741.298 1418.25 679.25 1377.24C651.332 1358.79 627.818 1343.24 611.5 1334.39C562.811 1307.99 512.316 1335 457.492 1364.33C413.399 1387.92 366.506 1413 315.5 1413C268.041 1413 219.219 1362.06 173.917 1314.79C138.93 1278.29 106.042 1243.97 77.5 1237C54.0148 1231.26 26.467 1245.67 0 1263.59V1600H900V1501.88Z" fill="#FF7070"/>
<path fill-rule="evenodd" clip-rule="evenodd" d="M900 1519.61C860.567 1528.93 809.092 1540.43 764.501 1524C760.368 1522.48 756.011 1520.85 751.445 1519.13L751.443 1519.13C695.389 1498.13 607.957 1465.36 521.5 1482C489.526 1488.16 461.205 1496.62 436.029 1504.14C387.582 1518.61 350.779 1529.61 322 1514C304.013 1504.25 283.687 1498.84 263.319 1493.43C224.61 1483.13 185.748 1472.8 162.5 1432.5C148.153 1407.63 138.888 1404.92 116.299 1398.32C103.462 1394.56 86.3215 1389.55 61.5 1378.5C33.0867 1365.85 15.5127 1368.73 0 1378.19V1600H900V1519.61Z" fill="#D94A4A"/>
</svg>
