<svg width="901" height="1600" viewBox="0 0 901 1600" fill="none" xmlns="http://www.w3.org/2000/svg">
<rect width="900" height="1600" fill="#F0ECDF"/>
<path fill-rule="evenodd" clip-rule="evenodd" d="M900.23 1341.76C872.763 1324.32 853.553 1303.44 838.42 1287C816.244 1262.89 802.822 1248.3 785 1268C695.568 1366.85 607.5 1408.88 467.5 1313.5C419.928 1281.09 367.759 1313.82 326.764 1339.53C298.819 1357.06 276.066 1371.34 263.5 1359.5C245.04 1342.11 224.498 1320.28 203.615 1298.08L203.615 1298.08C144.489 1235.24 82.6257 1169.48 57.5 1193.5C38.777 1211.4 19.5174 1224.22 0.230469 1233.4V1600H900.23V1341.76Z" fill="#FFB6B6"/>
<path fill-rule="evenodd" clip-rule="evenodd" d="M900.23 1419.74C883.687 1434.24 865.321 1442.67 844.5 1435C774.288 1409.14 732.398 1373.68 697.338 1344C677.845 1327.5 660.464 1312.78 641.5 1302.5C596.393 1278.04 566.802 1313.63 533.195 1354.06C501.351 1392.36 465.902 1435 410.23 1435C369.8 1435 336.693 1401.98 305.303 1370.68C271.39 1336.86 239.479 1305.03 202.5 1319C182.766 1326.45 146.662 1348.67 110.501 1370.92C72.6733 1394.19 34.7824 1417.5 15.5 1424C10.3909 1425.72 5.29903 1427.2 0.230469 1428.46V1600H900.23V1419.74Z" fill="#FF7070"/>
<path fill-rule="evenodd" clip-rule="evenodd" d="M900.23 1471.23C891.191 1467.68 881.786 1464.1 872 1460.5C783.815 1428.01 772.838 1438.27 735.857 1472.83C727.024 1481.08 716.707 1490.72 703.5 1501.5C635 1557.39 389.23 1574.61 305.23 1545.5C280.802 1537.03 250.158 1520.81 217.59 1503.56C138.167 1461.5 47.2996 1413.38 7.23047 1457C4.93214 1459.5 2.59806 1461.87 0.230469 1464.11V1600H900.23V1471.23Z" fill="#D94A4A"/>
</svg>
